PathFileType	4	(X/Y/Z)	/Users/itak/Documents/Research/Walk-IL/dataset/trc/00153_00007.trc
DataRate	CameraRate	NumFrames	NumMarkers	Units	OrigDataRate	OrigDataStartFrame	OrigNumFrames
100.000000	100.000000	4	53	mm	100.000000	393	525
Frame#	Time	RPSI			LPSI			L3			STRN			T10			C7			CLAV			RBAK			LBAK			LSHO			LUPA			LAEL			LAOL			LWTS			LWPS			LFRA			LIFD			LHPS			LHTS			RSHO			RUPA			RAEL			RAOL			RWTS			RWPS			RFRA			RIFD			RHTS			RHPS			RBHD			LFHD			RFHD			LBHD			LHIP			RHIP			RASI			LASI			LKNE			LTHI			LANK			LTIP			LTOE			LMT1			LMT5			LHEE			RKNE			RTHI			RANK			RTIP			RTOE			RMT1			RMT5			RHEE			
		X1	Y1	Z1	X2	Y2	Z2	X3	Y3	Z3	X4	Y4	Z4	X5	Y5	Z5	X6	Y6	Z6	X7	Y7	Z7	X8	Y8	Z8	X9	Y9	Z9	X10	Y10	Z10	X11	Y11	Z11	X12	Y12	Z12	X13	Y13	Z13	X14	Y14	Z14	X15	Y15	Z15	X16	Y16	Z16	X17	Y17	Z17	X18	Y18	Z18	X19	Y19	Z19	X20	Y20	Z20	X21	Y21	Z21	X22	Y22	Z22	X23	Y23	Z23	X24	Y24	Z24	X25	Y25	Z25	X26	Y26	Z26	X27	Y27	Z27	X28	Y28	Z28	X29	Y29	Z29	X30	Y30	Z30	X31	Y31	Z31	X32	Y32	Z32	X33	Y33	Z33	X34	Y34	Z34	X35	Y35	Z35	X36	Y36	Z36	X37	Y37	Z37	X38	Y38	Z38	X39	Y39	Z39	X40	Y40	Z40	X41	Y41	Z41	X42	Y42	Z42	X43	Y43	Z43	X44	Y44	Z44	X45	Y45	Z45	X46	Y46	Z46	X47	Y47	Z47	X48	Y48	Z48	X49	Y49	Z49	X50	Y50	Z50	X51	Y51	Z51	X52	Y52	Z52	X53	Y53	Z53	

394	3.93	338.3872680664062	1106.137573242188	178.4047088623047	472.0808410644531	1115.585083007812	180.0119934082031	404.7438659667969	1143.020141601562	167.6898956298828	395.7628479003906	1353.693969726562	376.4936828613281	383.6988220214844	1287.543212890625	132.0620269775391	389.302978515625	1582.208984375	137.9816741943359	396.1374206542969	1485.49169921875	329.0881958007812	303.652587890625	1392.947631835938	100.8982162475586	490.6096496582031	1564.51171875	125.6073379516602	565.5280151367188	1558.751831054688	207.0614776611328	639.143798828125	1430.294311523438	180.4517669677734	673.46240234375	1214.154541015625	185.2395324707031	606.3893432617188	1198.665405273438	129.4783630371094	662.8697509765625	952.3020629882812	285.2857360839844	676.674072265625	929.78125	200.0195465087891	687.3600463867188	1098.602661132812	197.6217498779297	652.15576171875	758.9696044921875	295.83447265625	685.0431518554688	854.4114990234375	226.3582458496094	679.5219116210938	863.5733642578125	295.0443115234375	213.4642028808594	1564.89599609375	206.3009033203125	148.9117126464844	1489.942749023438	198.2671203613281	130.2117462158203	1194.952270507812	210.8855590820312	226.1591186523438	1193.647216796875	197.5560607910156	158.9955902099609	966.0203857421875	376.9953002929688	120.4726715087891	942.763916015625	305.7277221679688	117.5300445556641	1123.784790039062	242.5675811767578	184.1782684326172	773.92333984375	415.1521911621094	158.3247833251953	859.93017578125	414.6862182617188	125.0519638061523	845.5390014648438	351.8496398925781	310.2591857910156	1762.895751953125	193.1998596191406	461.8121032714844	1822.5234375	342.7453002929688	333.9849548339844	1823.608764648438	360.8626708984375	443.7175598144531	1767.698608398438	168.3222198486328	585.0167236328125	1040.239501953125	283.0235900878906	223.6299896240234	1008.551513671875	303.2427673339844	268.3027954101562	1087.007080078125	385.7056274414062	534.1007690429688	1105.482666015625	383.756103515625	576.0014038085938	549.4764404296875	412.5588073730469	599.3946533203125	687.878173828125	355.4293823242188	578.9793090820312	32.03291702270508	417.281005859375	607.077880859375	289.5528564453125	374.7814025878906	503.1140441894531	43.72210693359375	640.4811401367188	477.1750793457031	47.37542724609375	559.4937133789062	596.0055541992188	34.30263137817383	542.4153442382812	522.431396484375	34.06443405151367	344.14599609375	239.8029632568359	515.046142578125	287.5829772949219	228.9957122802734	796.758544921875	320.304443359375	189.1164703369141	135.2055206298828	-93.43951416015625	211.4328460693359	410.0049438476562	195.4373931884766	311.8376159667969	34.76016616821289	63.05081558227539	330.9086303710938	56.92409896850586	-1.67144763469696	212.7602996826172	44.22122192382812	4.222712993621826	220.3824310302734	186.2659149169922	-140.1063079833984	
395	3.94	342.6382141113281	1106.749389648438	185.6932525634766	476.3070678710938	1116.367431640625	187.8856201171875	408.78857421875	1143.363647460938	175.6319885253906	398.9391479492188	1354.614135742188	383.7925109863281	388.6254272460938	1288.263427734375	139.1712188720703	394.0101013183594	1582.939697265625	144.9295043945312	399.5576171875	1486.340209960938	336.2637634277344	308.8360900878906	1393.522705078125	107.3126983642578	495.4611511230469	1565.2666015625	133.3351745605469	569.6964111328125	1559.604736328125	215.3871612548828	643.8018798828125	1431.247192382812	189.6006469726562	678.7199096679688	1215.188232421875	195.4266967773438	612.318115234375	1199.307861328125	139.0084686279297	667.7647705078125	953.9118041992188	296.7535705566406	682.5526733398438	930.9158325195312	211.7445983886719	692.6702270507812	1099.54638671875	208.7002868652344	657.7100830078125	760.6919555664062	308.4214782714844	690.915771484375	855.7477416992188	238.6675262451172	684.6139526367188	865.33154296875	307.2315368652344	217.6872406005859	1565.427978515625	211.90283203125	153.3377075195312	1490.446533203125	203.2322845458984	134.3279418945312	1195.549438476562	214.8073425292969	230.3750610351562	1194.210083007812	202.2123413085938	161.7765655517578	966.2258911132812	380.3316040039062	123.6288375854492	943.0689697265625	308.696044921875	121.2619476318359	1124.2470703125	246.0482940673828	186.8487854003906	773.9589233398438	418.2557983398438	160.9239959716797	859.9819946289062	417.7608337402344	127.8091506958008	845.716552734375	354.5772705078125	314.4320678710938	1763.594970703125	199.4985198974609	465.2294311523438	1823.595458984375	349.6246643066406	337.3149108886719	1824.703369140625	367.1156921386719	447.9587097167969	1768.3701171875	175.2379760742188	588.8960571289062	1041.123413085938	291.2013549804688	228.0818176269531	1009.485595703125	311.1831970214844	272.0048522949219	1087.910522460938	392.8028259277344	537.6685791015625	1106.365234375	391.9010925292969	578.9981689453125	548.9149169921875	415.6014404296875	602.8328247070312	687.89892578125	359.8180847167969	579.0528564453125	31.93600273132324	417.4617004394531	608.7543334960938	289.4209289550781	376.0395202636719	502.9535827636719	42.96610260009766	641.052001953125	477.1807861328125	47.39969253540039	559.7219848632812	596.2525024414062	33.97924423217773	542.6339721679688	522.6420288085938	34.15822219848633	344.2430725097656	242.7994689941406	515.6840209960938	298.1519165039062	232.8580474853516	797.5957641601562	328.8515930175781	189.9601898193359	141.3536987304688	-87.83773040771484	213.8491363525391	411.4987182617188	205.3012084960938	311.53369140625	34.21621322631836	64.62952423095703	331.40380859375	59.10469818115234	1.291747212409973	213.403076171875	46.18816757202148	6.097148895263672	221.3011016845703	193.7033538818359	-132.8244934082031	
396	3.95	346.5668334960938	1107.379150390625	192.8209228515625	480.2422790527344	1117.1455078125	195.4725799560547	412.6214904785156	1143.769165039062	183.2914733886719	402.0505676269531	1355.482788085938	390.9006042480469	393.4308776855469	1289.00341796875	146.0376892089844	398.6464233398438	1583.6787109375	151.7666320800781	402.9126281738281	1487.14013671875	343.2864990234375	313.9331970214844	1394.109252929688	113.5751342773438	500.236328125	1566.037719726562	140.9499969482422	573.791748046875	1560.4521484375	223.5961761474609	648.3724365234375	1432.205932617188	198.65625	683.8728637695312	1216.228149414062	205.6026916503906	618.1434326171875	1199.925415039062	148.5397796630859	672.5870361328125	955.5689086914062	308.2741394042969	688.3279418945312	932.0804443359375	223.5393524169922	697.8856811523438	1100.52978515625	219.7711181640625	663.1863403320312	762.4557495117188	321.1357727050781	696.6987915039062	857.1218872070312	251.0670166015625	689.6558227539062	867.156494140625	319.5004577636719	221.8447723388672	1565.940063476562	217.3711090087891	157.7169799804688	1490.913208007812	208.0402679443359	138.4321441650391	1196.107788085938	218.6736450195312	234.5742950439453	1194.7294921875	206.8292694091797	164.5767211914062	966.4613037109375	383.7025756835938	126.8331832885742	943.389892578125	311.7516784667969	124.96240234375	1124.699096679688	249.5094604492188	189.3603515625	774.0177612304688	421.4695434570312	163.4521942138672	860.0799560546875	420.9203796386719	130.4108734130859	845.97265625	357.364990234375	318.5224304199219	1764.273193359375	205.7299499511719	468.56201171875	1824.632690429688	356.4352416992188	340.5624084472656	1825.757080078125	373.2985534667969	452.1078491210938	1769.034912109375	182.0857543945312	592.549560546875	1041.922241210938	298.9595336914062	232.2058715820312	1010.391845703125	318.9986267089844	275.6343688964844	1088.796264648438	399.8219299316406	541.1552734375	1107.1728515625	399.7119140625	581.7991943359375	548.4625244140625	418.5518493652344	606.026123046875	687.9583740234375	364.10791015625	579.166259765625	31.81962966918945	417.5999450683594	610.4651489257812	289.4181823730469	377.3778991699219	502.8355407714844	42.42497253417969	641.4810180664062	477.228271484375	47.46865844726562	559.8943481445312	596.4699096679688	33.68569183349609	542.7996215820312	522.88134765625	34.25626754760742	344.3126220703125	245.9823913574219	516.2540893554688	308.7405090332031	236.6594848632812	798.3762817382812	337.3326416015625	190.9481353759766	147.6854705810547	-82.12242889404297	216.535400390625	412.8987121582031	215.2089691162109	310.9682922363281	33.70044326782227	66.53790283203125	331.6772766113281	61.56385040283203	4.760278224945068	213.8577423095703	48.69672012329102	8.145020484924316	222.4261016845703	201.0789489746094	-125.521842956543	
397	3.96	350.1983642578125	1108.027221679688	199.7645721435547	483.902099609375	1117.923461914062	202.7722320556641	416.2653503417969	1144.2685546875	190.6492004394531	405.0910339355469	1356.317993164062	397.8171081542969	398.1019287109375	1289.771850585938	152.6629028320312	403.2067260742188	1584.439453125	158.4860076904297	406.1973876953125	1487.907470703125	350.147705078125	318.9211120605469	1394.729125976562	119.7058563232422	504.9199829101562	1566.836059570312	148.4409637451172	577.8027954101562	1561.312866210938	231.6716156005859	652.8477172851562	1433.1923828125	207.604248046875	688.909912109375	1217.298217773438	215.7644653320312	623.8467407226562	1200.54541015625	158.0726776123047	677.3235473632812	957.2883911132812	319.83251953125	693.9842529296875	933.2987670898438	235.3883361816406	703.0042114257812	1101.592895507812	230.8160095214844	668.560546875	764.2789916992188	333.943115234375	702.3677978515625	858.5535888671875	263.5322570800781	694.62548828125	869.0585327148438	331.8275756835938	225.9348297119141	1566.474609375	222.7244415283203	162.0391082763672	1491.391235351562	212.7211303710938	142.5477447509766	1196.671508789062	222.4709625244141	238.7882690429688	1195.266845703125	211.4222412109375	167.3672790527344	966.7427978515625	387.0999450683594	130.0920867919922	943.7576904296875	314.8504638671875	128.6632385253906	1125.187255859375	252.9342956542969	191.7073364257812	774.12939453125	424.7672119140625	165.8747253417969	860.2466430664062	424.1378784179688	132.9114837646484	846.3173217773438	360.1765747070312	322.5353088378906	1764.938842773438	211.8900756835938	471.8104553222656	1825.638549804688	363.1752014160156	343.7311706542969	1826.77197265625	379.4125061035156	456.1694641113281	1769.70751953125	188.8573760986328	595.9867553710938	1042.659423828125	306.299072265625	235.9788055419922	1011.275085449219	326.5985412597656	279.1707153320312	1089.664794921875	406.7143249511719	544.55517578125	1107.927734375	407.1802368164062	584.3690795898438	548.1259155273438	421.3997802734375	608.9158325195312	688.0684814453125	368.3241271972656	579.3006591796875	31.70149612426758	417.7018127441406	612.1485595703125	289.529296875	378.7652893066406	502.747314453125	42.04755783081055	641.7941284179688	477.3034057617188	47.55823135375977	560.0198974609375	596.6533203125	33.43815231323242	542.9188232421875	523.1302490234375	34.35716247558594	344.3593139648438	249.3233032226562	516.7677612304688	319.3675231933594	240.3917999267578	799.10009765625	345.7235107421875	192.1593475341797	154.1405334472656	-76.26385498046875	219.4840087890625	414.2279357910156	225.1690673828125	310.1000671386719	33.25290298461914	68.85578155517578	331.7342834472656	64.29651641845703	8.845699310302734	214.1096801757812	51.70019912719727	10.40893840789795	223.8153533935547	208.3628540039062	-118.1719589233398	
